<?xml version="1.0" encoding="UTF-8" standalone="no"?>
<svg xmlns="http://www.w3.org/2000/svg" width="1600" height="900" viewBox="0 0 1600 900">
  <defs>
    <linearGradient id="gLeft" x1="0" y1="0" x2="1" y2="0">
      <stop offset="0" stop-color="#f7d27a" stop-opacity="0.55"/>
      <stop offset="1" stop-color="#bfe7c7" stop-opacity="0.35"/>
    </linearGradient>
    <linearGradient id="gReservoir" x1="0" y1="0" x2="0" y2="1">
      <stop offset="0" stop-color="#bfe0ff"/>
      <stop offset="1" stop-color="#6fb2e6"/>
    </linearGradient>
    <linearGradient id="gGate" x1="0" y1="0" x2="1" y2="0">
      <stop offset="0" stop-color="#ffe9b8"/>
      <stop offset="1" stop-color="#f3c86a"/>
    </linearGradient>
    <filter id="shadow" x="-20%" y="-20%" width="140%" height="140%">
      <feDropShadow dx="0" dy="6" stdDeviation="6" flood-color="#000" flood-opacity="0.15"/>
    </filter>
    <marker id="arrowBlue" markerWidth="12" markerHeight="12" refX="10" refY="6" orient="auto">
      <path d="M0,0 L12,6 L0,12 Z" fill="#1e6fd9"/>
    </marker>
    <marker id="arrowOrange" markerWidth="12" markerHeight="12" refX="10" refY="6" orient="auto">
      <path d="M0,0 L12,6 L0,12 Z" fill="#e28a1b"/>
    </marker>
  </defs>
<rect x="0" y="0" width="1600" height="900" fill="#ffffff"/>
<rect x="40" y="160" width="440" height="560" rx="34" ry="34" fill="url(#gLeft)" fill-opacity="1.0" stroke="none" stroke-width="0"/>
<polygon points="193.0564506366017,250.2171111779321 177.84897485228288,280.6320627465698 208.26392642092054,280.6320627465698" fill="#f0b24d" opacity="0.95" stroke="#a66b12" stroke-width="1.2"/>
<path d="M183.0564506366017,247.42458696225094 Q193.0564506366017,237.42458696225094 203.0564506366017,247.42458696225094" stroke="#c77712" stroke-width="2" fill="none" opacity="0.7" stroke-linecap="round" stroke-linejoin="round"/>
<polygon points="273.6351616365419,362.38046705809506 263.17117023834425,383.3084498544904 284.0991530347396,383.3084498544904" fill="#f0b24d" opacity="0.95" stroke="#a66b12" stroke-width="1.2"/>
<polygon points="84.24835020795426,396.263998442596 73.6895068193573,417.38168521978986 94.80719359655122,417.38168521978986" fill="#f0b24d" opacity="0.95" stroke="#a66b12" stroke-width="1.2"/>
<path d="M74.24835020795426,388.82284183119293 Q84.24835020795426,378.82284183119293 94.24835020795426,388.82284183119293" stroke="#c77712" stroke-width="2" fill="none" opacity="0.7" stroke-linecap="round" stroke-linejoin="round"/>
<polygon points="231.3172918741553,592.4356466468219 220.32687618495814,614.4164780252161 242.30770756335247,614.4164780252161" fill="#f0b24d" opacity="0.95" stroke="#a66b12" stroke-width="1.2"/>
<path d="M221.3172918741553,585.426062336019 Q231.3172918741553,575.426062336019 241.3172918741553,585.426062336019" stroke="#c77712" stroke-width="2" fill="none" opacity="0.7" stroke-linecap="round" stroke-linejoin="round"/>
<polygon points="308.42462451412393,649.2376476395629 293.8078009251839,678.4712948174428 323.04144810306394,678.4712948174428" fill="#f0b24d" opacity="0.95" stroke="#a66b12" stroke-width="1.2"/>
<polygon points="440.9769401253096,196.4235926364887 424.1091924529202,230.1590879812676 457.84468779769907,230.1590879812676" fill="#f0b24d" opacity="0.95" stroke="#a66b12" stroke-width="1.2"/>
<polygon points="124.81693167582625,236.4282644463687 112.34907708301078,261.36397363199967 137.28478626864174,261.36397363199967" fill="#f0b24d" opacity="0.95" stroke="#a66b12" stroke-width="1.2"/>
<polygon points="138.67602437109625,465.68877407982365 123.56471661968678,495.9113895826426 153.78733212250572,495.9113895826426" fill="#f0b24d" opacity="0.95" stroke="#a66b12" stroke-width="1.2"/>
<polygon points="278.142896969632,210.91767812693172 267.6660876099021,231.87129684639143 288.61970632936186,231.87129684639143" fill="#f0b24d" opacity="0.95" stroke="#a66b12" stroke-width="1.2"/>
<path d="M268.142896969632,203.39448748666157 Q278.142896969632,193.39448748666157 288.142896969632,203.39448748666157" stroke="#c77712" stroke-width="2" fill="none" opacity="0.7" stroke-linecap="round" stroke-linejoin="round"/>
<polygon points="328.55198980907863,391.2829754716871 316.0388124460643,416.3093301977158 341.06516717209297,416.3093301977158" fill="#f0b24d" opacity="0.95" stroke="#a66b12" stroke-width="1.2"/>
<polygon points="242.21006302089464,323.52846257966127 225.8550271687147,356.2385342840211 258.5650988730746,356.2385342840211" fill="#f0b24d" opacity="0.95" stroke="#a66b12" stroke-width="1.2"/>
<polygon points="162.7566740744181,463.0102830988439 148.5551020439265,491.4134271598271 176.9582461049097,491.4134271598271" fill="#f0b24d" opacity="0.95" stroke="#a66b12" stroke-width="1.2"/>
<polygon points="347.1892099869027,316.1274836651526 329.34781120696204,351.810281225034 365.0306087668434,351.810281225034" fill="#f0b24d" opacity="0.95" stroke="#a66b12" stroke-width="1.2"/>
<path d="M337.1892099869027,315.9688824450933 Q347.1892099869027,305.9688824450933 357.1892099869027,315.9688824450933" stroke="#c77712" stroke-width="2" fill="none" opacity="0.7" stroke-linecap="round" stroke-linejoin="round"/>
<polygon points="228.88667227838633,557.3545885053406 217.6707960011023,579.7863410599086 240.10254855567035,579.7863410599086" fill="#f0b24d" opacity="0.95" stroke="#a66b12" stroke-width="1.2"/>
<polygon points="84.89875767802631,507.9913613374951 68.78219074832381,540.2244951969001 101.01532460772881,540.2244951969001" fill="#f0b24d" opacity="0.95" stroke="#a66b12" stroke-width="1.2"/>
<polygon points="402.6815684957375,331.3113934938591 387.1192055655482,362.4361193542377 418.2439314259268,362.4361193542377" fill="#f0b24d" opacity="0.95" stroke="#a66b12" stroke-width="1.2"/>
<polygon points="290.36017762734707,401.3829234066062 273.64043538324677,434.8224078948068 307.0799198714474,434.8224078948068" fill="#f0b24d" opacity="0.95" stroke="#a66b12" stroke-width="1.2"/>
<polygon points="250.1573682194649,511.5907473165595 239.67201279868715,532.561458158115 260.64272364024265,532.561458158115" fill="#f0b24d" opacity="0.95" stroke="#a66b12" stroke-width="1.2"/>
<polygon points="315.9089647205141,669.9725714404394 299.3335664276364,703.1233680261948 332.4843630133918,703.1233680261948" fill="#f0b24d" opacity="0.95" stroke="#a66b12" stroke-width="1.2"/>
<polygon points="216.60074812975012,514.1458545176494 206.4202447053054,534.5068613665388 226.78125155419482,534.5068613665388" fill="#f0b24d" opacity="0.95" stroke="#a66b12" stroke-width="1.2"/>
<polygon points="133.85838398448692,238.07626188621546 123.38674862983643,259.0195325955164 144.3300193391374,259.0195325955164" fill="#f0b24d" opacity="0.95" stroke="#a66b12" stroke-width="1.2"/>
<polygon points="119.14928436710001,300.6798192233913 106.02168674203419,326.935014473523 132.27688199216584,326.935014473523" fill="#f0b24d" opacity="0.95" stroke="#a66b12" stroke-width="1.2"/>
<polygon points="100.62089445605267,400.1981812015132 86.22537518290036,428.98921974781774 115.01641372920497,428.98921974781774" fill="#f0b24d" opacity="0.95" stroke="#a66b12" stroke-width="1.2"/>
<polygon points="381.3263383775817,609.7648663331464 369.0989698614705,634.2196033653687 393.5537068936929,634.2196033653687" fill="#f0b24d" opacity="0.95" stroke="#a66b12" stroke-width="1.2"/>
<polygon points="206.33304282601742,614.4345639673966 188.6711931943055,649.7582632308204 223.99489245772935,649.7582632308204" fill="#f0b24d" opacity="0.95" stroke="#a66b12" stroke-width="1.2"/>
<path d="M196.33304282601742,614.0964135991085 Q206.33304282601742,604.0964135991085 216.33304282601742,614.0964135991085" stroke="#c77712" stroke-width="2" fill="none" opacity="0.7" stroke-linecap="round" stroke-linejoin="round"/>
<polygon points="136.96273682634072,294.111744740321 125.09604815689383,317.8451220792148 148.8294254957876,317.8451220792148" fill="#f0b24d" opacity="0.95" stroke="#a66b12" stroke-width="1.2"/>
<polygon points="293.86693141825714,311.3405608221885 283.8341825911766,331.40605847634953 303.89968024533766,331.40605847634953" fill="#f0b24d" opacity="0.95" stroke="#a66b12" stroke-width="1.2"/>
<polygon points="210.31635769999565,455.5458284489952 192.69157429579488,490.7953952573967 227.94114110419642,490.7953952573967" fill="#f0b24d" opacity="0.95" stroke="#a66b12" stroke-width="1.2"/>
<polygon points="265.8867445668958,483.3867740449678 250.4771439072998,514.2059753641598 281.29634522649184,514.2059753641598" fill="#f0b24d" opacity="0.95" stroke="#a66b12" stroke-width="1.2"/>
<path d="M255.8867445668958,480.79637470456385 Q265.8867445668958,470.79637470456385 275.8867445668958,480.79637470456385" stroke="#c77712" stroke-width="2" fill="none" opacity="0.7" stroke-linecap="round" stroke-linejoin="round"/>
<polygon points="411.8225438220218,562.9886398799606 394.826438348946,596.9808508261121 428.81864929509766,596.9808508261121" fill="#f0b24d" opacity="0.95" stroke="#a66b12" stroke-width="1.2"/>
<polygon points="219.1039846186821,378.6611194104539 208.2756878689995,400.3177129098191 229.93228136836467,400.3177129098191" fill="#f0b24d" opacity="0.95" stroke="#a66b12" stroke-width="1.2"/>
<polygon points="93.65417221510128,212.0037024379431 81.98406673153197,235.34391340508176 105.3242776986706,235.34391340508176" fill="#f0b24d" opacity="0.95" stroke="#a66b12" stroke-width="1.2"/>
<path d="M83.65417221510128,205.67380792151243 Q93.65417221510128,195.67380792151243 103.65417221510128,205.67380792151243" stroke="#c77712" stroke-width="2" fill="none" opacity="0.7" stroke-linecap="round" stroke-linejoin="round"/>
<polygon points="199.2203878482905,206.28593568992264 189.21852159307966,226.28966820034432 209.22225410350134,226.28966820034432" fill="#f0b24d" opacity="0.95" stroke="#a66b12" stroke-width="1.2"/>
<path d="M189.2203878482905,198.28780194513348 Q199.2203878482905,188.28780194513348 209.2203878482905,198.28780194513348" stroke="#c77712" stroke-width="2" fill="none" opacity="0.7" stroke-linecap="round" stroke-linejoin="round"/>
<polygon points="108.55645984858667,361.60095392395635 98.3524527552575,382.00896811061466 118.76046694191584,382.00896811061466" fill="#f0b24d" opacity="0.95" stroke="#a66b12" stroke-width="1.2"/>
<polygon points="303.3462153596219,252.2571806129891 291.3281533071653,276.29330471790234 315.36427741207854,276.29330471790234" fill="#f0b24d" opacity="0.95" stroke="#a66b12" stroke-width="1.2"/>
<polygon points="208.38210702074733,234.62961996922053 191.5906116088704,268.2126107929744 225.17360243262425,268.2126107929744" fill="#f0b24d" opacity="0.95" stroke="#a66b12" stroke-width="1.2"/>
<polygon points="247.07599448077482,421.23025091568536 236.3889171883255,442.604405500584 257.76307177322417,442.604405500584" fill="#f0b24d" opacity="0.95" stroke="#a66b12" stroke-width="1.2"/>
<path d="M237.07599448077482,413.9173282081347 Q247.07599448077482,403.9173282081347 257.07599448077485,413.9173282081347" stroke="#c77712" stroke-width="2" fill="none" opacity="0.7" stroke-linecap="round" stroke-linejoin="round"/>
<polygon points="200.2016185323407,305.7476028336176 183.5707755073682,339.00928888356253 216.83246155731317,339.00928888356253" fill="#f0b24d" opacity="0.95" stroke="#a66b12" stroke-width="1.2"/>
<path d="M190.2016185323407,304.37844585859006 Q200.2016185323407,294.37844585859006 210.2016185323407,304.37844585859006" stroke="#c77712" stroke-width="2" fill="none" opacity="0.7" stroke-linecap="round" stroke-linejoin="round"/>
<polygon points="78.7763739971943,651.2667272770141 64.5503148368573,679.718845597688 93.0024331575313,679.718845597688" fill="#f0b24d" opacity="0.95" stroke="#a66b12" stroke-width="1.2"/>
<path d="M68.7763739971943,647.492786437351 Q78.7763739971943,637.492786437351 88.7763739971943,647.492786437351" stroke="#c77712" stroke-width="2" fill="none" opacity="0.7" stroke-linecap="round" stroke-linejoin="round"/>
<polygon points="276.40552183520344,189.2963701835778 262.180646307697,217.7461212385907 290.6303973627099,217.7461212385907" fill="#f0b24d" opacity="0.95" stroke="#a66b12" stroke-width="1.2"/>
<polygon points="398.0635115100742,526.009471376066 385.97458993223927,550.1873145317358 410.1524330879091,550.1873145317358" fill="#f0b24d" opacity="0.95" stroke="#a66b12" stroke-width="1.2"/>
<polygon points="133.4759731230478,561.7082150210725 119.21523394310476,590.2296933809586 147.73671230299084,590.2296933809586" fill="#f0b24d" opacity="0.95" stroke="#a66b12" stroke-width="1.2"/>
<polygon points="195.27269811814972,285.0287465774038 178.78060814396096,318.01292652578127 211.76478809233848,318.01292652578127" fill="#f0b24d" opacity="0.95" stroke="#a66b12" stroke-width="1.2"/>
<polygon points="393.998943523731,576.4926288462308 377.452279977128,609.5859559394368 410.545607070334,609.5859559394368" fill="#f0b24d" opacity="0.95" stroke="#a66b12" stroke-width="1.2"/>
<polygon points="156.16100621200226,435.9748617749131 143.31650586516258,461.6638624685924 169.00550655884194,461.6638624685924" fill="#f0b24d" opacity="0.95" stroke="#a66b12" stroke-width="1.2"/>
<path d="M146.16100621200226,430.81936212175276 Q156.16100621200226,420.81936212175276 166.16100621200226,430.81936212175276" stroke="#c77712" stroke-width="2" fill="none" opacity="0.7" stroke-linecap="round" stroke-linejoin="round"/>
<polygon points="80.61608866038449,317.63587461837284 68.54269375424244,341.7826644306569 92.68948356652655,341.7826644306569" fill="#f0b24d" opacity="0.95" stroke="#a66b12" stroke-width="1.2"/>
<polygon points="433.47572900970835,396.11766927315176 415.9795593994984,431.1100084935717 450.9718986199183,431.1100084935717" fill="#f0b24d" opacity="0.95" stroke="#a66b12" stroke-width="1.2"/>
<polygon points="432.9002399021066,360.5542440969631 421.13654131813666,384.08164126490294 444.6639384860765,384.08164126490294" fill="#f0b24d" opacity="0.95" stroke="#a66b12" stroke-width="1.2"/>
<path d="M422.9002399021066,354.317942680933 Q432.9002399021066,344.317942680933 442.9002399021066,354.317942680933" stroke="#c77712" stroke-width="2" fill="none" opacity="0.7" stroke-linecap="round" stroke-linejoin="round"/>
<polygon points="144.74834209934056,277.194150458609 129.755810919838,307.17921281761403 159.7408732788431,307.17921281761403" fill="#f0b24d" opacity="0.95" stroke="#a66b12" stroke-width="1.2"/>
<polygon points="389.36550036613016,414.51288878804104 374.1416760234021,444.96053747349714 404.5893247088582,444.96053747349714" fill="#f0b24d" opacity="0.95" stroke="#a66b12" stroke-width="1.2"/>
<polygon points="102.21582485114445,503.0146080020333 84.93760775073066,537.5710422028609 119.49404195155823,537.5710422028609" fill="#f0b24d" opacity="0.95" stroke="#a66b12" stroke-width="1.2"/>
<polygon points="355.0533747355742,417.5881985502995 343.62520098887364,440.44454604370065 366.4815484822748,440.44454604370065" fill="#f0b24d" opacity="0.95" stroke="#a66b12" stroke-width="1.2"/>
<polygon points="196.35653594855177,572.6385261364883 178.5832776366945,608.1850427602028 214.12979426040903,608.1850427602028" fill="#f0b24d" opacity="0.95" stroke="#a66b12" stroke-width="1.2"/>
<polygon points="222.52699078972657,647.6001139073728 206.72860146465285,679.1968925575202 238.32538011480028,679.1968925575202" fill="#f0b24d" opacity="0.95" stroke="#a66b12" stroke-width="1.2"/>
<path d="M212.52699078972657,645.3985032324465 Q222.52699078972657,635.3985032324465 232.52699078972657,645.3985032324465" stroke="#c77712" stroke-width="2" fill="none" opacity="0.7" stroke-linecap="round" stroke-linejoin="round"/>
<polygon points="118.27457957318845,248.33653342487895 101.03576280732253,282.8141669566108 135.51339633905437,282.8141669566108" fill="#f0b24d" opacity="0.95" stroke="#a66b12" stroke-width="1.2"/>
<text x="260" y="400" font-family="Inter, Arial, Helvetica, sans-serif" font-size="34" font-weight="700" text-anchor="middle" fill="#1c2b39">On-Edge</text>
<text x="260" y="442" font-family="Inter, Arial, Helvetica, sans-serif" font-size="34" font-weight="700" text-anchor="middle" fill="#1c2b39">Semantic Telemetry</text>
<text x="260" y="484" font-family="Inter, Arial, Helvetica, sans-serif" font-size="34" font-weight="700" text-anchor="middle" fill="#1c2b39">Agents</text>
<text x="260" y="535" font-family="Inter, Arial, Helvetica, sans-serif" font-size="26" font-weight="700" text-anchor="middle" fill="#1c2b39">(O-ESTAs)</text>
<circle cx="670" cy="420" r="240" fill="#dff0ff" opacity="0.65"/>
<g filter="url(#shadow)">
<ellipse cx="670" cy="300" rx="170.0" ry="40" fill="#d7ecff" stroke="#1b4f9c" stroke-width="3"/>
<rect x="500.0" y="300" width="340" height="280" fill="url(#gReservoir)" stroke="#1b4f9c" stroke-width="3"/>
<ellipse cx="670" cy="580" rx="170.0" ry="40" fill="#74b8ea" stroke="#1b4f9c" stroke-width="3"/>
</g>
<text x="670" y="410" font-family="Inter, Arial, Helvetica, sans-serif" font-size="44" font-weight="800" text-anchor="middle" fill="#0b2a4a">Concord</text>
<text x="670" y="458" font-family="Inter, Arial, Helvetica, sans-serif" font-size="44" font-weight="800" text-anchor="middle" fill="#0b2a4a">Reservoir</text>
<text x="670" y="508" font-family="Inter, Arial, Helvetica, sans-serif" font-size="24" font-weight="600" text-anchor="middle" fill="#0b2a4a">(Central Semantic</text>
<text x="670" y="536" font-family="Inter, Arial, Helvetica, sans-serif" font-size="24" font-weight="600" text-anchor="middle" fill="#0b2a4a">Backbone)</text>
<line x1="1140" y1="190" x2="1140" y2="710" stroke="#1b4f9c" stroke-width="3" opacity="0.35"/>
<text x="1090" y="220" font-family="Inter, Arial, Helvetica, sans-serif" font-size="34" font-weight="800" text-anchor="middle" fill="#0b2a4a">Core Cognitive</text>
<text x="1090" y="254" font-family="Inter, Arial, Helvetica, sans-serif" font-size="34" font-weight="800" text-anchor="middle" fill="#0b2a4a">Engine</text>
<polygon points="980,300 1035,280.75 1090,300 1035,319.25" fill="#bfe0ff" opacity="1.0" stroke="#1b4f9c" stroke-width="2"/>
<polygon points="980,300 1035,319.25 1035,357.75 980,338.5" fill="#79b5ff" opacity="1.0" stroke="#1b4f9c" stroke-width="2"/>
<polygon points="1035,319.25 1090,300 1090,338.5 1035,357.75" fill="#5aa3f0" opacity="1.0" stroke="#1b4f9c" stroke-width="2"/>
<text x="1090" y="460" font-family="Inter, Arial, Helvetica, sans-serif" font-size="30" font-weight="800" text-anchor="middle" fill="#0b2a4a">Temporal</text>
<text x="1090" y="492" font-family="Inter, Arial, Helvetica, sans-serif" font-size="30" font-weight="800" text-anchor="middle" fill="#0b2a4a">Spillway Engine</text>
<polygon points="995,530 1035,516.0 1075,530 1035,544.0" fill="#bfe0ff" opacity="1.0" stroke="#1b4f9c" stroke-width="2"/>
<polygon points="995,530 1035,544.0 1035,572.0 995,558.0" fill="#86c2ff" opacity="1.0" stroke="#1b4f9c" stroke-width="2"/>
<polygon points="1035,544.0 1075,530 1075,558.0 1035,572.0" fill="#5aa3f0" opacity="1.0" stroke="#1b4f9c" stroke-width="2"/>
<ellipse cx="1090" cy="650" rx="105.0" ry="24" fill="#d7ecff" stroke="#1b4f9c" stroke-width="2"/>
<rect x="985.0" y="650" width="210" height="90" fill="#d7ecff" stroke="#1b4f9c" stroke-width="2"/>
<ellipse cx="1090" cy="740" rx="105.0" ry="24" fill="#d7ecff" stroke="#1b4f9c" stroke-width="2"/>
<text x="1090" y="705" font-family="Inter, Arial, Helvetica, sans-serif" font-size="22" font-weight="700" text-anchor="middle" fill="#0b2a4a">Vector DB</text>
<g filter="url(#shadow)">
<path d="M1220,250 L1220,590 Q1430,420.0 1220,250 Z" fill="url(#gGate)" stroke="#a66b12" stroke-width="3"/>
</g>
<text x="1300" y="410.0" font-family="Inter, Arial, Helvetica, sans-serif" font-size="32" font-weight="800" text-anchor="middle" fill="#1c2b39">Cognitive</text>
<text x="1300" y="450.0" font-family="Inter, Arial, Helvetica, sans-serif" font-size="32" font-weight="800" text-anchor="middle" fill="#1c2b39">Gate</text>
<text x="1490" y="210" font-family="Inter, Arial, Helvetica, sans-serif" font-size="34" font-weight="900" text-anchor="middle" fill="#0b2a4a">Observatory Deck</text>
<rect x="1415" y="260" width="200" height="130" rx="14" ry="14" fill="#ffffff" fill-opacity="1.0" stroke="#1b4f9c" stroke-width="3" filter="url(#shadow)"/>
<rect x="1429" y="274" width="172" height="90" rx="10" ry="10" fill="#eaf3ff" fill-opacity="1.0" stroke="#1b4f9c" stroke-width="2"/>
<rect x="1497.0" y="370" width="36" height="10" fill="#1b4f9c"/>
<rect x="1479.0" y="380" width="72" height="10" fill="#1b4f9c"/>
<g transform="translate(1410, 440)">
<rect x="112.0" y="34.0" width="12" height="12" rx="3" ry="3" fill="#f3c86a" fill-opacity="1.0" stroke="#a66b12" stroke-width="1.5"/>
<rect x="104.742645786248" y="56.33583958711398" width="12" height="12" rx="3" ry="3" fill="#f3c86a" fill-opacity="1.0" stroke="#a66b12" stroke-width="1.5"/>
<rect x="85.742645786248" y="70.14014761921584" width="12" height="12" rx="3" ry="3" fill="#f3c86a" fill-opacity="1.0" stroke="#a66b12" stroke-width="1.5"/>
<rect x="62.257354213751995" y="70.14014761921584" width="12" height="12" rx="3" ry="3" fill="#f3c86a" fill-opacity="1.0" stroke="#a66b12" stroke-width="1.5"/>
<rect x="43.257354213752" y="56.33583958711398" width="12" height="12" rx="3" ry="3" fill="#f3c86a" fill-opacity="1.0" stroke="#a66b12" stroke-width="1.5"/>
<rect x="36.0" y="34.00000000000001" width="12" height="12" rx="3" ry="3" fill="#f3c86a" fill-opacity="1.0" stroke="#a66b12" stroke-width="1.5"/>
<rect x="43.257354213751995" y="11.664160412886027" width="12" height="12" rx="3" ry="3" fill="#f3c86a" fill-opacity="1.0" stroke="#a66b12" stroke-width="1.5"/>
<rect x="62.257354213751995" y="-2.1401476192158313" width="12" height="12" rx="3" ry="3" fill="#f3c86a" fill-opacity="1.0" stroke="#a66b12" stroke-width="1.5"/>
<rect x="85.74264578624799" y="-2.1401476192158384" width="12" height="12" rx="3" ry="3" fill="#f3c86a" fill-opacity="1.0" stroke="#a66b12" stroke-width="1.5"/>
<rect x="104.742645786248" y="11.664160412886012" width="12" height="12" rx="3" ry="3" fill="#f3c86a" fill-opacity="1.0" stroke="#a66b12" stroke-width="1.5"/>
<circle cx="80" cy="40" r="28" fill="#f3c86a" stroke="#a66b12" stroke-width="2"/>
<circle cx="80" cy="40" r="10" fill="#ffffff" stroke="#a66b12" stroke-width="2"/>
<rect x="156.0" y="54.0" width="12" height="12" rx="3" ry="3" fill="#86c2ff" fill-opacity="1.0" stroke="#1b4f9c" stroke-width="1.5"/>
<rect x="149.88854381999832" y="72.80912807335915" width="12" height="12" rx="3" ry="3" fill="#86c2ff" fill-opacity="1.0" stroke="#1b4f9c" stroke-width="1.5"/>
<rect x="133.88854381999832" y="84.43380852144492" width="12" height="12" rx="3" ry="3" fill="#86c2ff" fill-opacity="1.0" stroke="#1b4f9c" stroke-width="1.5"/>
<rect x="114.11145618000168" y="84.43380852144492" width="12" height="12" rx="3" ry="3" fill="#86c2ff" fill-opacity="1.0" stroke="#1b4f9c" stroke-width="1.5"/>
<rect x="98.11145618000168" y="72.80912807335915" width="12" height="12" rx="3" ry="3" fill="#86c2ff" fill-opacity="1.0" stroke="#1b4f9c" stroke-width="1.5"/>
<rect x="92.0" y="54.00000000000001" width="12" height="12" rx="3" ry="3" fill="#86c2ff" fill-opacity="1.0" stroke="#1b4f9c" stroke-width="1.5"/>
<rect x="98.11145618000168" y="35.19087192664087" width="12" height="12" rx="3" ry="3" fill="#86c2ff" fill-opacity="1.0" stroke="#1b4f9c" stroke-width="1.5"/>
<rect x="114.11145618000168" y="23.566191478555087" width="12" height="12" rx="3" ry="3" fill="#86c2ff" fill-opacity="1.0" stroke="#1b4f9c" stroke-width="1.5"/>
<rect x="133.88854381999832" y="23.566191478555083" width="12" height="12" rx="3" ry="3" fill="#86c2ff" fill-opacity="1.0" stroke="#1b4f9c" stroke-width="1.5"/>
<rect x="149.88854381999832" y="35.19087192664085" width="12" height="12" rx="3" ry="3" fill="#86c2ff" fill-opacity="1.0" stroke="#1b4f9c" stroke-width="1.5"/>
<circle cx="130" cy="60" r="22" fill="#86c2ff" stroke="#1b4f9c" stroke-width="2"/>
<circle cx="130" cy="60" r="10" fill="#ffffff" stroke="#1b4f9c" stroke-width="2"/>
</g>
<text x="1515" y="545" font-family="Inter, Arial, Helvetica, sans-serif" font-size="24" font-weight="800" text-anchor="middle" fill="#1c2b39">Services</text>
<rect x="1505" y="585" width="70" height="140" rx="18" ry="18" fill="#ffffff" fill-opacity="1.0" stroke="#1b4f9c" stroke-width="3" filter="url(#shadow)"/>
<rect x="1513" y="601" width="54" height="108" rx="12" ry="12" fill="#eaf3ff" fill-opacity="1.0" stroke="#1b4f9c" stroke-width="2"/>
<circle cx="1540.0" cy="713" r="6" fill="#1b4f9c" stroke="none" stroke-width="0"/>
<path d="M440,380 C520,400 540,340 500.0,390" stroke="#e28a1b" stroke-width="6" fill="none" opacity="1.0" stroke-linecap="round" stroke-linejoin="round" marker-end="url(#arrowOrange)"/>
<path d="M420,480 C520,520 540,430 500.0,440" stroke="#e28a1b" stroke-width="6" fill="none" opacity="1.0" stroke-linecap="round" stroke-linejoin="round" marker-end="url(#arrowOrange)"/>
<path d="M840.0,410 C860,410 1000,350 1140,370" stroke="#1e6fd9" stroke-width="6" fill="none" opacity="1.0" stroke-linecap="round" stroke-linejoin="round" marker-end="url(#arrowBlue)"/>
<path d="M830.0,480 C860,500 1000,590 1140,480" stroke="#1e6fd9" stroke-width="6" fill="none" opacity="1.0" stroke-linecap="round" stroke-linejoin="round" marker-end="url(#arrowBlue)"/>
<path d="M1020,670 C820,670 760,560 820.0,570" stroke="#1e6fd9" stroke-width="6" fill="none" opacity="0.85" stroke-linecap="round" stroke-linejoin="round" marker-end="url(#arrowBlue)"/>
<path d="M1430,360 C1410,360 1410,360 1415,360" stroke="#1e6fd9" stroke-width="5" fill="none" opacity="1.0" stroke-linecap="round" stroke-linejoin="round" marker-end="url(#arrowBlue)"/>
<path d="M1430,470 C1410,510 1410,510 1415,570" stroke="#1e6fd9" stroke-width="5" fill="none" opacity="1.0" stroke-linecap="round" stroke-linejoin="round" marker-end="url(#arrowBlue)"/>
<path d="M1430,560 C1410,610 1410,610 1515,720" stroke="#1e6fd9" stroke-width="5" fill="none" opacity="1.0" stroke-linecap="round" stroke-linejoin="round" marker-end="url(#arrowBlue)"/>
</svg>
